<?xml version="1.0" standalone="no"?>
<!DOCTYPE svg PUBLIC "-//W3C//DTD SVG 20010904//EN"
 "http://www.w3.org/TR/2001/REC-SVG-20010904/DTD/svg10.dtd">
<svg version="1.0" xmlns="http://www.w3.org/2000/svg"
 width="1080.000000pt" height="1080.000000pt" viewBox="0 0 1080.000000 1080.000000"
 preserveAspectRatio="xMidYMid meet">

<g transform="translate(0.000000,1080.000000) scale(0.100000,-0.100000)"
fill="#b59393" stroke="none">
<path d="M4173 7953 c26 -2 67 -2 90 0 23 2 2 3 -48 3 -49 0 -68 -1 -42 -3z"/>
<path d="M4493 7953 c9 -2 25 -2 35 0 9 3 1 5 -18 5 -19 0 -27 -2 -17 -5z"/>
<path d="M5338 7953 c7 -3 16 -2 19 1 4 3 -2 6 -13 5 -11 0 -14 -3 -6 -6z"/>
<path d="M6128 7953 c7 -3 16 -2 19 1 4 3 -2 6 -13 5 -11 0 -14 -3 -6 -6z"/>
<path d="M6218 7953 c7 -3 16 -2 19 1 4 3 -2 6 -13 5 -11 0 -14 -3 -6 -6z"/>
<path d="M6298 7953 c12 -2 32 -2 45 0 12 2 2 4 -23 4 -25 0 -35 -2 -22 -4z"/>
<path d="M6438 7953 c23 -2 59 -2 80 0 20 2 1 4 -43 4 -44 0 -61 -2 -37 -4z"/>
<path d="M7398 7953 c7 -3 16 -2 19 1 4 3 -2 6 -13 5 -11 0 -14 -3 -6 -6z"/>
<path d="M3428 7943 c7 -3 16 -2 19 1 4 3 -2 6 -13 5 -11 0 -14 -3 -6 -6z"/>
<path d="M8286 7925 c-3 -9 -6 -31 -5 -48 1 -28 2 -26 10 12 9 46 6 65 -5 36z"/>
<path d="M3485 7906 c17 -14 33 -25 37 -26 3 0 21 -21 38 -47 l32 -48 -6 60
c-4 33 -12 64 -18 70 -8 7 -9 6 -4 -2 5 -8 1 -13 -9 -13 -9 0 -13 5 -9 11 5 8
1 8 -14 0 -27 -14 -35 -14 -26 2 4 6 4 9 -1 5 -4 -4 -17 -3 -29 3 -13 7 -10 1
9 -15z m60 -16 c3 -6 -1 -7 -9 -4 -18 7 -21 14 -7 14 6 0 13 -4 16 -10z"/>
<path d="M4810 7926 c0 -2 7 -7 16 -10 8 -3 12 -2 9 4 -6 10 -25 14 -25 6z"/>
<path d="M4856 7912 c-3 -5 8 -19 25 -31 16 -12 43 -41 59 -63 l30 -41 0 54
c0 30 -5 61 -11 69 -9 13 -10 12 -5 -2 3 -12 1 -15 -10 -11 -9 3 -13 12 -9 21
4 12 3 13 -10 2 -16 -13 -21 -35 -6 -26 4 3 13 -7 20 -21 12 -26 11 -26 -20 5
-18 18 -39 32 -46 32 -8 0 -11 5 -8 10 3 6 4 10 1 10 -3 0 -7 -4 -10 -8z"/>
<path d="M5667 7831 c-4 -52 -7 -119 -6 -150 l0 -56 18 51 c26 70 47 111 94
174 22 30 37 52 32 48 -4 -4 -15 -2 -24 5 -14 10 -14 10 -3 -5 16 -20 6 -24
-53 -20 -36 3 -44 8 -47 25 -2 12 -7 -20 -11 -72z"/>
<path d="M5969 7901 c-172 -33 -288 -293 -289 -646 -1 -367 152 -635 362 -635
73 0 113 17 159 66 68 74 103 158 125 303 9 66 10 89 1 97 -15 13 -145 94
-152 94 -3 0 -5 -20 -5 -46 0 -67 -28 -178 -51 -203 -46 -49 -97 -48 -128 3
-35 58 -52 137 -58 277 -12 280 44 448 143 423 37 -9 71 -58 84 -119 l11 -55
70 0 69 0 -2 211 -3 211 -67 4 -68 4 0 -38 c-1 -33 -2 -35 -12 -17 -19 32 -51
54 -88 61 -19 3 -42 7 -50 9 -8 1 -31 -1 -51 -4z"/>
<path d="M1514 7881 c-2 -2 -4 -87 -4 -188 l0 -183 23 0 22 0 -3 -525 c-2
-516 -3 -525 -22 -525 -19 0 -20 -7 -20 -186 0 -167 2 -186 16 -180 9 3 62 18
118 32 350 87 472 176 531 389 22 81 32 352 15 437 -23 121 -72 198 -154 240
-42 22 -134 29 -198 15 l-38 -8 0 176 0 175 95 0 95 0 0 -105 0 -105 28 0 c15
0 51 3 80 6 l52 7 -2 264 -3 264 -313 2 c-173 1 -316 0 -318 -2z m384 -984
c43 -46 52 -123 27 -222 -20 -76 -55 -130 -94 -143 l-31 -11 0 200 0 199 38 0
c27 0 45 -7 60 -23z"/>
<path d="M1863 6765 c0 -33 2 -45 4 -27 2 18 2 45 0 60 -2 15 -4 0 -4 -33z"/>
<path d="M2270 7882 c-6 -2 -10 -60 -10 -153 0 -142 1 -149 20 -149 11 0 20
-3 20 -8 0 -4 43 -191 95 -415 52 -224 97 -425 100 -446 l6 -39 -54 -7 c-30
-4 -59 -10 -65 -14 -16 -10 -21 -301 -5 -301 22 0 208 42 215 49 3 3 59 270
124 594 115 573 119 587 141 587 l24 0 -3 153 -3 152 -120 0 -120 0 -3 -153
-3 -152 26 0 c21 0 25 -4 20 -22 -2 -13 -18 -97 -34 -187 -17 -90 -32 -165
-34 -167 -2 -2 -19 82 -38 186 l-35 190 23 0 24 0 -3 151 -3 150 -147 2 c-81
1 -152 1 -158 -1z"/>
<path d="M2947 7884 c-12 -12 -8 -292 4 -296 7 -2 10 -125 10 -408 -1 -337 -3
-405 -15 -412 -11 -6 -14 -40 -15 -152 -1 -79 2 -146 6 -149 4 -3 83 7 176 21
l167 26 0 143 0 143 -35 0 -35 0 0 109 0 109 47 7 c252 38 376 266 318 589
-26 146 -90 233 -190 260 -54 15 -425 23 -438 10z m325 -286 c36 -13 58 -64
58 -131 0 -67 -27 -112 -88 -145 l-42 -23 0 161 0 161 23 -6 c12 -3 34 -11 49
-17z"/>
<path d="M3262 7470 c0 -19 2 -27 5 -17 2 9 2 25 0 35 -3 9 -5 1 -5 -18z"/>
<path d="M3693 7882 l-43 -3 0 -130 c0 -78 4 -129 10 -130 6 -1 15 -2 20 -3 6
0 10 -4 10 -8 0 -5 0 -179 0 -387 l0 -380 -27 -3 -28 -3 -2 -137 c-2 -124 -1
-138 15 -138 9 0 60 5 112 10 52 5 154 14 225 19 72 6 151 14 178 17 l47 6 0
209 0 209 -47 0 c-91 0 -93 -2 -93 -90 l0 -77 -37 -7 c-21 -3 -55 -6 -75 -6
l-38 0 0 130 0 130 65 0 65 0 0 125 0 125 -65 0 -65 0 0 124 0 124 70 4 70 3
0 -66 0 -66 73 1 72 1 0 200 0 200 -235 1 c-129 0 -254 -2 -277 -4z"/>
<path d="M4306 7883 c-3 -3 -6 -64 -6 -135 0 -117 2 -129 17 -126 11 2 17 -3
17 -14 -1 -10 -2 -178 -3 -373 -1 -308 -3 -355 -16 -355 -13 0 -15 -21 -15
-127 l0 -126 206 7 c113 3 228 11 255 17 108 23 173 108 192 249 20 151 -17
309 -88 376 l-35 33 24 28 c56 67 71 111 75 231 4 138 -9 181 -75 242 -74 68
-92 72 -330 76 -116 2 -214 1 -218 -3z m315 -253 c54 -15 79 -48 86 -112 9
-87 -25 -130 -119 -152 l-28 -6 0 140 c0 152 -2 147 61 130z m35 -476 c52 -35
69 -114 38 -179 -17 -36 -65 -65 -108 -65 l-26 0 0 130 0 130 35 0 c20 0 47
-7 61 -16z"/>
<path d="M4627 7508 c2 -65 3 -67 11 -45 9 20 3 97 -7 97 -3 0 -5 -24 -4 -52z"/>
<path d="M4625 7041 c0 -28 3 -47 7 -43 13 14 13 92 0 92 -4 0 -7 -22 -7 -49z"/>
<path d="M5036 7882 c-3 -3 -6 -59 -6 -124 l0 -118 25 0 25 0 0 -364 0 -365
-22 -3 c-22 -3 -23 -6 -23 -123 l0 -120 283 -3 282 -2 0 200 0 200 -75 0 -75
0 0 -75 0 -75 -67 0 -68 0 2 117 2 118 59 5 59 5 0 123 -1 122 -58 0 -58 0 0
120 0 120 60 0 60 0 0 -70 0 -70 80 0 80 0 0 190 c0 105 -3 190 -7 191 -35 5
-553 6 -557 1z"/>
<path d="M6440 7887 c-1 -4 -1 -522 -1 -539 1 -15 10 -18 56 -18 l54 0 3 153
3 152 28 3 27 3 0 -395 0 -396 -25 0 -25 0 0 -128 0 -129 128 -6 c70 -4 148
-7 175 -7 l47 0 0 130 0 130 -30 0 -30 0 0 390 c0 215 -1 393 -2 398 -2 4 12
8 30 10 l32 3 0 -170 0 -171 65 0 65 0 -2 293 -3 292 -297 2 c-164 1 -298 1
-298 0z"/>
<path d="M7114 7876 c-3 -7 -3 -68 -2 -137 l3 -124 28 -3 27 -3 0 -399 0 -399
-27 -3 -28 -3 -3 -127 c-3 -149 -24 -129 165 -153 183 -23 163 -38 163 120 0
128 -1 135 -20 135 -19 0 -20 7 -20 150 l0 150 33 0 c17 0 49 -3 70 -6 l37 -7
0 -154 c0 -154 0 -154 -22 -151 -23 3 -23 2 -25 -134 -1 -76 1 -138 5 -138 4
0 72 -11 152 -25 80 -14 150 -25 157 -25 8 0 12 42 12 144 l2 145 -28 3 -28 3
-3 433 -2 432 25 0 25 0 0 135 c0 74 0 138 0 143 0 4 -69 7 -152 7 l-153 0 -3
-142 c-2 -123 0 -143 13 -143 13 0 15 -20 15 -129 0 -94 -3 -130 -12 -134 -7
-2 -39 -2 -70 1 l-58 4 0 134 c0 127 1 134 20 134 19 0 20 7 20 140 l0 139
-156 0 c-111 -1 -157 -5 -160 -13z"/>
<path d="M7896 7883 c-3 -4 -6 -71 -6 -150 l0 -143 25 0 25 0 0 -440 0 -440
-25 0 -25 0 0 -145 c0 -80 2 -145 4 -145 3 0 66 -11 142 -25 75 -14 140 -22
144 -18 3 4 16 55 29 113 18 89 88 418 145 685 14 68 14 61 15 -232 l1 -303
-30 0 -30 0 0 -148 0 -148 138 -27 c75 -15 147 -30 160 -33 l22 -6 0 155 0
155 -25 6 -25 6 0 485 0 485 25 0 26 0 -3 156 -3 157 -132 3 -132 4 -15 -68
c-8 -37 -36 -164 -62 -282 -26 -118 -61 -280 -80 -360 l-32 -145 -1 273 c-1
266 -1 272 19 272 19 0 20 7 20 145 0 80 1 148 3 153 3 9 -308 14 -317 5z"/>
<path d="M8720 7718 l0 -168 25 0 25 0 0 -490 0 -490 -25 0 -25 0 2 -162 3
-162 163 -36 162 -37 0 173 c0 161 -1 173 -19 179 -17 5 -19 21 -26 198 -12
331 -12 330 79 41 43 -137 81 -255 83 -261 4 -10 -3 -11 -26 -7 l-31 7 0 -175
0 -174 168 -37 c92 -21 170 -37 175 -37 4 0 7 81 7 179 0 163 -2 181 -18 193
-12 8 -28 50 -44 113 -14 55 -56 213 -93 350 -76 284 -76 241 -4 467 42 133
45 138 72 138 l27 0 0 180 c0 212 17 192 -165 188 l-120 -3 -3 -172 -2 -173
35 0 c40 0 41 -6 19 -58 -8 -20 -47 -120 -85 -221 -39 -102 -74 -192 -79 -200
-6 -10 -10 78 -10 237 l0 252 25 0 25 0 0 169 0 169 -160 -1 -160 0 0 -169z"/>
<path d="M9466 7838 c-3 -13 -6 -105 -6 -206 0 -140 -3 -183 -12 -181 -52 6
-55 3 -92 -116 -20 -63 -39 -128 -42 -144 -4 -20 21 -133 81 -359 77 -291 90
-331 111 -343 l24 -12 0 -237 c0 -130 -2 -239 -5 -242 -3 -2 -107 19 -232 49
-126 29 -316 73 -423 98 -107 24 -203 49 -213 55 -14 8 -383 90 -408 90 -3 0
-5 12 -3 28 2 16 1 19 -2 7 -3 -11 -9 -23 -12 -27 -4 -3 -99 11 -212 33 -316
61 -598 109 -790 134 -96 13 -176 24 -177 24 -2 1 -3 86 -3 190 l0 190 26 3
25 3 3 330 c1 182 1 264 -1 183 l-4 -148 -94 0 -95 0 0 -170 0 -170 30 0 30 0
0 -195 0 -196 -205 7 c-145 5 -205 4 -205 -4 0 -13 48 -52 66 -52 7 0 29 -9
48 -21 32 -19 60 -22 251 -30 158 -7 221 -13 238 -23 12 -8 54 -20 92 -27 39
-6 79 -16 90 -22 11 -6 36 -10 55 -10 19 1 37 -3 41 -8 3 -6 62 -17 130 -25
119 -14 258 -38 289 -51 8 -3 24 -7 35 -9 18 -2 70 -12 240 -45 28 -6 82 -14
120 -19 206 -27 244 -34 289 -51 27 -10 62 -19 78 -19 16 0 37 -4 47 -10 10
-5 45 -14 77 -20 109 -20 119 -22 129 -30 6 -4 38 -11 72 -15 34 -4 67 -13 74
-21 7 -9 31 -14 65 -14 29 0 55 -4 58 -9 3 -4 25 -12 48 -16 24 -5 45 -9 48
-10 3 0 30 -5 60 -9 30 -5 62 -12 70 -16 23 -12 123 -16 139 -6 11 7 13 5 8
-7 -3 -9 -2 -19 3 -22 15 -9 -1 -35 -22 -35 -14 0 -18 -5 -14 -16 5 -12 1 -14
-17 -9 -17 5 -19 4 -7 -4 10 -7 11 -11 3 -11 -7 0 -13 -4 -13 -10 0 -5 21 3
48 19 97 58 152 94 152 100 0 4 15 13 34 19 35 13 68 42 47 42 -6 0 -11 -4
-11 -10 0 -5 -7 -10 -16 -10 -9 0 -12 5 -8 12 4 7 3 8 -5 4 -6 -4 -9 -11 -7
-15 8 -13 -58 1 -72 16 -15 15 -8 63 11 75 19 12 21 257 3 332 -10 37 -18 81
-20 99 -2 18 -7 41 -13 52 -6 11 -14 38 -18 59 -3 22 -13 49 -21 60 -8 11 -14
33 -14 49 0 25 -14 75 -56 199 -29 86 -18 348 15 378 12 11 44 109 57 175 7
39 13 103 14 143 0 67 -3 79 -46 162 -26 50 -48 90 -49 90 -2 0 -5 -10 -9 -22z
m93 -1929 c-22 -13 -31 -11 -17 5 7 8 17 12 22 9 4 -3 2 -9 -5 -14z"/>
<path d="M4992 7498 c-7 -42 -23 -96 -40 -129 -26 -50 -27 -58 -14 -75 24 -32
62 -120 71 -166 6 -29 9 36 10 200 1 133 -3 242 -8 242 -5 0 -13 -33 -19 -72z"/>
<path d="M6036 7548 c-51 -82 -54 -451 -4 -556 35 -72 62 -2 66 171 2 76 7
137 12 135 4 -2 71 -41 148 -88 l141 -85 1 -52 c0 -103 -44 -272 -95 -360 -32
-54 -88 -109 -140 -136 -32 -18 -57 -22 -125 -22 -75 0 -91 4 -138 30 -94 51
-156 131 -230 295 -9 20 -11 -8 -9 -128 l2 -152 -347 0 -348 0 0 62 0 63 -31
-38 c-68 -83 -175 -116 -379 -118 -69 0 -163 -4 -210 -9 -147 -13 -612 -60
-685 -68 l-70 -8 57 -8 c37 -5 63 -15 75 -28 34 -38 69 -48 175 -50 120 -3
346 11 369 23 8 4 76 9 150 10 74 1 172 7 219 15 47 7 117 15 155 16 39 2 76
7 82 11 7 5 91 7 185 5 334 -5 489 -1 568 17 137 30 173 29 297 -11 15 -5 16
-4 3 5 -13 9 -13 11 0 11 9 0 25 -6 36 -14 34 -24 227 -25 254 -1 9 8 28 15
42 15 14 0 31 7 38 15 7 8 21 15 32 15 10 0 30 8 45 17 14 9 43 18 64 19 35 2
39 -1 39 -22 0 -13 3 -24 8 -24 4 0 6 90 4 200 l-3 200 28 0 28 0 0 173 0 172
-87 3 -88 3 0 59 0 60 -135 0 -135 0 0 55 c0 58 -21 125 -39 125 -6 0 -17 -10
-25 -22z m81 -1074 c-3 -3 -12 -4 -19 -1 -8 3 -5 6 6 6 11 1 17 -2 13 -5z"/>
<path d="M3987 7498 c7 -78 11 -82 12 -10 1 34 -3 62 -8 62 -4 0 -6 -24 -4
-52z"/>
<path d="M7457 7533 c-11 -10 -8 -133 3 -133 6 0 10 30 10 70 0 70 -1 76 -13
63z"/>
<path d="M2886 7503 c-3 -10 -55 -270 -116 -578 -61 -308 -113 -567 -116 -575
-3 -11 -26 -20 -67 -27 -34 -6 -104 -21 -156 -32 -146 -32 -131 -56 -131 198
l0 219 63 9 c34 5 61 13 61 18 -1 6 -42 182 -90 393 -76 325 -91 382 -106 382
-16 0 -18 -11 -18 -109 l0 -108 -31 -7 c-17 -3 -64 -6 -103 -6 l-71 -1 62 -30
c104 -50 161 -140 189 -294 25 -143 14 -341 -27 -480 -68 -230 -204 -323 -626
-431 -104 -26 -134 -44 -100 -57 6 -3 1 -6 -13 -7 -23 -1 -23 -2 -5 -9 14 -6
-3 -10 -55 -16 -73 -8 -69 -9 117 -21 106 -7 255 -20 330 -28 144 -16 260 -27
208 -19 -16 3 -33 9 -36 15 -3 5 -23 11 -43 12 -20 2 -38 5 -40 7 -1 2 -1 23
2 46 4 37 10 47 53 78 27 19 53 35 58 35 5 0 19 13 31 30 13 19 33 32 56 36
19 3 39 15 45 25 7 13 21 19 45 19 20 0 59 6 87 14 29 8 95 17 147 20 60 3
115 13 148 26 59 23 58 22 123 79 25 23 52 41 58 41 6 0 16 10 21 23 9 22 9
22 9 1 1 -14 9 -24 24 -28 37 -10 77 -7 77 7 0 8 3 8 9 -2 6 -8 18 -12 31 -8
13 3 19 2 14 -3 -5 -5 -27 -10 -49 -13 -29 -3 -23 -4 23 -5 35 -1 94 -7 131
-13 60 -9 76 -8 130 10 34 11 71 27 82 35 12 8 27 12 34 9 8 -2 22 8 31 24 10
15 35 49 56 74 21 25 38 51 38 57 0 16 13 15 55 -2 l35 -15 0 190 0 189 30 0
30 0 -1 188 c0 166 -2 183 -14 151 -51 -139 -151 -230 -295 -269 -40 -11 -40
-11 -40 -60 0 -49 1 -50 30 -50 40 0 41 -9 38 -225 l-3 -180 -50 -7 c-27 -3
-97 -14 -155 -23 -209 -34 -265 -42 -270 -39 -3 1 -4 102 -2 223 2 186 5 221
17 221 13 0 15 49 15 345 0 190 -2 345 -4 345 -3 0 -7 -8 -10 -17z m674 -939
c0 -20 -4 -25 -16 -20 -9 3 -20 6 -25 6 -5 0 -1 9 8 20 23 27 33 25 33 -6z
m-2027 -561 c-7 -2 -19 -2 -25 0 -7 3 -2 5 12 5 14 0 19 -2 13 -5z"/>
<path d="M7830 7155 l0 -365 23 0 22 0 0 365 0 365 -22 0 -23 0 0 -365z"/>
<path d="M8650 7507 c-3 -3 -4 -196 -2 -430 l2 -425 25 -4 25 -5 0 425 c0 416
0 424 -19 419 -13 -3 -21 1 -23 10 -2 8 -5 13 -8 10z"/>
<path d="M1870 7386 l0 -106 30 0 31 0 -3 103 -3 102 -27 3 -28 3 0 -105z"/>
<path d="M9060 7433 c0 -42 3 -41 18 5 9 26 8 32 -4 32 -10 0 -14 -11 -14 -37z"/>
<path d="M5500 7280 l0 -155 58 0 57 0 1 155 2 155 -59 0 -59 0 0 -155z"/>
<path d="M4110 7254 l0 -167 38 7 c20 3 56 6 80 6 l42 0 0 160 0 160 -80 0
-80 0 0 -166z"/>
<path d="M5383 7025 c0 -33 2 -45 4 -27 2 18 2 45 0 60 -2 15 -4 0 -4 -33z"/>
<path d="M3993 6985 c0 -38 2 -53 4 -32 2 20 2 52 0 70 -2 17 -4 1 -4 -38z"/>
<path d="M7464 6925 c0 -49 1 -71 3 -48 2 23 2 64 0 90 -2 26 -3 8 -3 -42z"/>
<path d="M9882 5942 c-67 -42 -245 -155 -395 -251 -273 -175 -431 -259 -667
-356 -318 -131 -476 -177 -1550 -450 -591 -151 -628 -161 -838 -231 -174 -58
-287 -110 -445 -206 l-97 -59 -83 30 c-598 215 -1011 378 -1203 474 -167 84
-383 215 -443 269 -231 208 -986 434 -1971 593 -496 79 -949 96 -1205 45 -60
-12 -114 -25 -118 -29 -5 -5 18 -12 50 -15 223 -27 566 -137 821 -265 53 -26
205 -97 337 -156 252 -113 1368 -671 1588 -794 369 -206 586 -355 715 -491 39
-40 122 -149 122 -159 0 -3 -14 -12 -30 -20 -37 -16 -195 -127 -265 -186 -77
-65 -194 -141 -255 -166 -44 -18 -74 -23 -153 -23 l-98 -1 8 -45 c9 -57 8 -75
-6 -125 -10 -37 -17 -43 -107 -90 -53 -27 -98 -53 -100 -57 -3 -5 8 -8 24 -8
44 0 117 -28 142 -56 13 -13 27 -24 32 -24 4 0 43 22 86 49 42 26 96 58 118
69 l41 21 53 -54 53 -54 46 41 c86 75 233 166 281 172 25 3 198 8 385 11 498
7 715 28 890 86 91 30 136 52 435 206 117 61 273 123 306 123 5 0 19 -8 30
-19 18 -16 28 -17 80 -9 170 27 484 -78 531 -177 9 -19 20 -35 24 -35 8 0 29
89 29 125 0 13 -10 50 -22 82 -26 71 -115 163 -201 208 -37 19 -57 36 -57 48
0 24 -43 107 -74 144 l-26 31 63 40 c34 23 87 52 117 65 71 31 357 135 635
232 594 205 748 262 975 358 414 176 696 353 1041 653 162 141 493 493 478
509 -3 2 -60 -31 -127 -73z m-7057 -333 c123 -22 355 -82 285 -73 -25 3 -94
12 -155 20 -60 8 -162 19 -225 24 -125 12 -170 24 -170 48 0 12 12 14 78 8 42
-4 127 -16 187 -27z m6598 -44 c-7 -20 -43 -38 -313 -160 -573 -258 -860 -355
-1405 -475 -77 -16 -150 -32 -163 -35 -19 -5 -21 -9 -12 -25 11 -20 24 -16
-180 -55 -138 -26 -299 -71 -560 -156 -135 -44 -294 -96 -355 -116 -125 -40
-235 -87 -235 -101 0 -5 14 -9 31 -10 45 -1 46 -8 2 -22 -37 -12 -73 -36 -73
-50 0 -3 16 -4 35 -2 47 6 46 -21 -2 -47 -18 -9 -41 -4 -139 31 l-117 41 34
29 c46 39 212 119 339 163 287 99 613 193 1135 325 769 194 969 255 1335 402
195 79 379 162 515 231 94 48 139 59 128 32z m-7138 -30 c32 -3 69 -8 81 -11
22 -6 22 -6 3 -25 -10 -10 -19 -28 -19 -39 0 -23 0 -23 34 -10 13 5 72 14 130
20 87 10 134 9 266 -5 179 -18 360 -47 405 -65 28 -11 29 -13 11 -24 -10 -6
-38 -24 -63 -39 -49 -30 -53 -44 -9 -27 15 5 71 13 124 16 287 18 660 -119
1231 -450 367 -213 464 -257 851 -385 212 -71 260 -92 260 -112 0 -18 -51 -58
-78 -61 -15 -2 36 -7 113 -12 153 -8 182 -13 150 -26 -11 -4 -114 -26 -230
-49 -321 -65 -395 -84 -708 -188 -126 -41 -140 -44 -155 -30 -19 20 -5 41 42
63 l31 14 -36 -4 c-78 -9 -165 11 -284 65 -74 33 -112 55 -103 59 27 15 155
39 238 45 135 10 181 33 144 70 -36 36 -53 38 -104 11 -54 -28 -80 -32 -111
-16 -14 8 -27 7 -48 -5 -51 -26 -231 -15 -231 14 0 14 45 31 115 45 l70 14
-83 1 c-126 1 -224 25 -332 79 -73 36 -97 53 -104 74 -8 21 -6 32 7 46 9 10
17 22 17 25 0 4 -28 7 -62 7 -66 1 -159 27 -165 47 -5 15 25 24 111 32 39 4
64 10 56 14 -8 3 -172 53 -365 110 -336 101 -528 165 -570 192 -11 6 -85 38
-165 69 -226 89 -597 280 -607 313 -3 7 10 15 31 19 20 3 36 10 36 14 0 5 -16
18 -35 30 -29 18 -41 20 -63 12 -30 -10 -92 8 -92 27 0 25 101 52 170 45 19
-2 62 -6 95 -9z m4155 -1277 c97 -30 290 -199 290 -254 0 -23 -31 -44 -66 -44
-41 0 -46 -22 -11 -51 21 -18 21 -19 3 -33 -10 -8 -40 -20 -68 -25 -108 -24
-200 -8 -298 52 l-56 34 -34 -24 c-65 -46 -173 -93 -213 -93 -47 0 -87 37
-105 98 -29 97 3 158 120 230 28 18 38 31 40 55 3 30 6 32 43 35 22 1 69 9
105 17 114 25 173 26 250 3z m400 -432 l45 -31 -29 -3 c-41 -5 -70 4 -105 34
-19 16 -31 35 -31 51 l0 25 38 -23 c20 -12 57 -36 82 -53z m-1105 -161 c0 -18
-119 -53 -205 -60 -64 -5 -90 -12 -107 -27 -86 -80 -457 -117 -531 -53 -15 13
-25 25 -22 28 3 3 79 12 170 22 171 17 361 49 393 66 21 12 216 37 267 35 19
0 35 -5 35 -11z m-1400 -78 c11 -18 12 -31 5 -57 -6 -19 -10 -50 -10 -68 0
-38 -22 -50 -106 -59 -40 -4 -52 -2 -57 10 -8 20 8 130 19 134 5 2 29 17 54
33 55 35 75 37 95 7z m174 -11 c9 -11 9 -20 2 -35 -6 -11 -11 -40 -11 -66 l0
-46 -57 3 c-75 4 -79 22 -21 101 42 57 66 69 87 43z"/>
<path d="M6409 4135 c-14 -14 12 -91 39 -113 23 -19 34 -22 72 -17 71 10 90
16 90 30 0 19 -39 64 -69 80 -32 16 -123 30 -132 20z"/>
<path d="M3778 5983 c6 -2 18 -2 25 0 6 3 1 5 -13 5 -14 0 -19 -2 -12 -5z"/>
<path d="M3848 5983 c7 -3 16 -2 19 1 4 3 -2 6 -13 5 -11 0 -14 -3 -6 -6z"/>
<path d="M4263 5983 c15 -2 39 -2 55 0 15 2 2 4 -28 4 -30 0 -43 -2 -27 -4z"/>
<path d="M5308 5983 c12 -2 32 -2 45 0 12 2 2 4 -23 4 -25 0 -35 -2 -22 -4z"/>
<path d="M6003 5983 c9 -2 25 -2 35 0 9 3 1 5 -18 5 -19 0 -27 -2 -17 -5z"/>
<path d="M6888 5983 c12 -2 30 -2 40 0 9 3 -1 5 -23 4 -22 0 -30 -2 -17 -4z"/>
<path d="M7453 5983 c9 -2 25 -2 35 0 9 3 1 5 -18 5 -19 0 -27 -2 -17 -5z"/>
<path d="M10110 5974 c0 -43 -330 -393 -545 -579 -473 -409 -827 -591 -1795
-925 -441 -152 -635 -221 -685 -244 -16 -7 -48 -19 -70 -26 -114 -35 -177 -75
-146 -95 5 -3 12 -18 16 -33 3 -17 18 -36 37 -47 79 -46 188 -157 222 -224 52
-102 51 -229 -4 -366 -17 -43 -28 -80 -25 -83 3 -3 5 0 5 7 0 7 4 10 9 7 5 -4
7 4 4 16 -3 17 -2 19 5 9 8 -11 11 -11 16 0 5 11 7 11 12 2 10 -22 26 -14 19
8 -5 14 -3 19 3 15 6 -3 22 15 37 41 25 45 27 54 23 153 -3 58 -10 115 -17
128 -18 33 -24 76 -27 179 -3 83 -1 94 17 103 10 6 19 16 19 23 0 16 50 62 76
71 12 4 24 16 27 26 3 12 11 18 19 15 8 -3 34 12 58 35 25 22 53 40 62 40 9 0
19 4 22 9 3 4 19 11 35 14 17 4 39 15 49 25 11 11 39 22 63 26 51 8 111 27
130 42 8 6 35 17 62 24 26 7 50 16 52 21 3 4 24 10 48 14 23 4 51 12 62 18 11
5 57 21 104 33 46 13 91 29 100 37 9 7 48 23 87 36 39 12 93 33 119 47 27 13
58 24 71 24 12 0 49 13 81 29 32 16 75 34 95 41 20 6 42 18 48 26 7 7 23 14
36 14 13 0 28 9 34 20 6 12 21 20 36 20 14 0 38 10 53 21 16 12 35 19 43 17 7
-3 29 7 48 22 19 15 40 25 46 23 6 -2 23 8 38 22 15 14 36 25 47 25 11 0 33
12 48 28 16 15 54 40 85 56 31 16 56 33 56 37 0 4 19 16 43 27 23 11 67 43 99
71 31 28 63 51 72 51 8 0 13 6 10 13 -3 8 9 20 28 29 18 9 62 41 97 72 36 31
68 56 72 56 4 0 10 9 14 19 3 11 21 26 39 35 39 18 316 306 316 329 0 8 7 20
15 27 39 32 77 195 54 231 -5 8 -9 10 -9 4 0 -5 -5 -3 -10 5 -5 8 -10 10 -10
4z m-3047 -1794 c-8 -17 -18 -28 -23 -25 -5 3 -12 0 -16 -6 -4 -8 -3 -9 4 -5
19 11 14 -2 -24 -71 -23 -40 -40 -60 -44 -53 -4 6 -11 11 -16 10 -5 -1 -10 4
-12 12 -2 9 0 8 7 -2 6 -8 11 -13 12 -10 0 3 2 15 5 27 2 15 -1 22 -9 20 -6
-1 -12 5 -12 13 0 9 9 15 21 14 13 0 20 4 17 12 -2 6 0 15 6 18 6 4 7 14 4 24
-5 14 -2 13 11 -3 10 -11 15 -15 11 -8 -7 14 28 36 41 25 5 -4 2 1 -5 11 -12
15 -12 17 2 12 8 -4 18 -2 22 4 14 23 13 10 -2 -19z"/>
<path d="M8065 5889 c-4 -6 -5 -12 -2 -15 2 -3 7 2 10 11 7 17 1 20 -8 4z"/>
<path d="M2148 5873 c12 -2 30 -2 40 0 9 3 -1 5 -23 4 -22 0 -30 -2 -17 -4z"/>
<path d="M2218 5863 c6 -2 18 -2 25 0 6 3 1 5 -13 5 -14 0 -19 -2 -12 -5z"/>
<path d="M2288 5853 c7 -3 16 -2 19 1 4 3 -2 6 -13 5 -11 0 -14 -3 -6 -6z"/>
<path d="M8040 5845 c-11 -13 -10 -14 4 -9 9 3 16 10 16 15 0 13 -6 11 -20 -6z"/>
<path d="M2328 5843 c6 -2 18 -2 25 0 6 3 1 5 -13 5 -14 0 -19 -2 -12 -5z"/>
<path d="M2410 5830 c25 -8 87 -13 79 -6 -2 2 -26 6 -54 9 -34 4 -42 3 -25 -3z"/>
<path d="M2888 5816 c-16 -36 -58 -50 -125 -41 -32 4 -56 5 -53 2 7 -7 261
-60 265 -55 9 9 -56 98 -67 92 -8 -5 -9 -2 -5 9 10 26 -2 20 -15 -7z"/>
<path d="M2508 5813 c7 -3 16 -2 19 1 4 3 -2 6 -13 5 -11 0 -14 -3 -6 -6z"/>
<path d="M7806 5451 c-117 -201 -211 -367 -207 -369 3 -1 80 18 171 44 91 25
180 48 198 51 47 8 47 18 -1 17 -76 -1 -80 2 -72 64 4 30 17 78 30 106 13 28
26 58 29 66 4 8 15 29 26 45 11 17 26 44 34 60 9 17 19 37 24 45 31 54 36 73
38 151 l1 85 -28 0 c-28 0 -40 -18 -243 -365z m217 334 c-3 -9 -8 -14 -10 -11
-3 3 -2 9 2 15 9 16 15 13 8 -4z"/>
<path d="M2553 5803 c9 -2 23 -2 30 0 6 3 -1 5 -18 5 -16 0 -22 -2 -12 -5z"/>
<path d="M2630 5790 c14 -4 36 -8 50 -8 22 0 22 1 -5 8 -16 4 -39 8 -50 8 -16
0 -15 -2 5 -8z"/>
<path d="M9420 5790 c-9 -6 -10 -10 -3 -10 6 0 15 5 18 10 8 12 4 12 -15 0z"/>
<path d="M3132 5782 c2 -5 16 -34 32 -64 l30 -55 135 -37 c441 -118 766 -258
911 -392 41 -37 219 -148 226 -141 3 3 -25 98 -61 212 -37 113 -65 208 -63
210 2 2 37 -96 78 -218 41 -122 82 -226 89 -232 29 -20 236 -125 247 -125 7 0
3 31 -11 88 -46 177 -108 452 -104 457 3 2 38 -123 78 -278 40 -155 75 -285
79 -288 12 -11 214 -91 218 -86 3 2 -4 64 -15 138 -43 286 -71 495 -70 514 1
20 43 -209 95 -515 14 -85 27 -156 27 -156 7 -6 191 -74 193 -71 2 2 -3 116
-11 253 -7 137 -16 310 -19 384 l-5 135 14 -140 c7 -77 24 -255 36 -396 l22
-256 93 -32 c102 -34 115 -37 92 -18 -14 11 -15 42 -7 282 4 149 8 329 9 400
1 79 5 122 10 110 4 -11 9 -198 9 -415 1 -217 5 -398 9 -402 7 -7 140 -58 151
-58 4 0 8 19 10 43 1 23 8 101 15 172 8 72 26 258 42 415 29 292 45 358 25
106 -13 -158 -51 -713 -51 -736 0 -10 26 -25 73 -43 87 -32 97 -33 90 -8 -2
10 26 175 63 367 126 655 136 687 60 189 -63 -409 -87 -547 -98 -567 -5 -10
-6 -18 -2 -18 4 0 51 26 105 58 80 46 100 63 107 87 5 17 60 209 123 427 62
219 114 396 116 394 2 -2 -42 -187 -97 -411 -55 -224 -100 -409 -100 -410 0
-2 46 15 101 38 84 35 104 47 115 72 13 29 194 519 249 678 15 43 29 76 31 74
2 -2 -52 -174 -121 -383 -69 -208 -125 -380 -125 -381 0 0 21 6 48 14 26 8 80
24 120 36 l73 22 95 210 c52 116 118 262 146 325 28 63 55 120 60 125 12 13 4
-8 -92 -235 -45 -107 -102 -242 -126 -299 -25 -57 -42 -106 -40 -108 2 -3 60
10 127 29 l123 33 145 267 c80 147 147 266 149 264 2 -2 -26 -60 -61 -128
-198 -379 -208 -400 -190 -394 10 3 99 26 198 50 230 58 225 57 225 66 0 5 15
35 34 67 138 235 396 684 396 688 0 3 -1053 5 -2341 5 -1287 0 -2339 -4 -2337
-8z m1795 -264 c-3 -8 -6 -5 -6 6 -1 11 2 17 5 13 3 -3 4 -12 1 -19z m-290
-10 c-3 -8 -6 -5 -6 6 -1 11 2 17 5 13 3 -3 4 -12 1 -19z m2616 7 c-3 -9 -8
-14 -10 -11 -3 3 -2 9 2 15 9 16 15 13 8 -4z m-1216 -27 c-3 -7 -5 -2 -5 12 0
14 2 19 5 13 2 -7 2 -19 0 -25z m1193 -18 c-6 -11 -13 -20 -16 -20 -2 0 0 9 6
20 6 11 13 20 16 20 2 0 0 -9 -6 -20z m-3151 -65 c0 -5 -6 1 -14 15 -8 14 -14
30 -14 35 0 6 6 -1 14 -15 8 -14 14 -29 14 -35z m21 -50 c0 -5 -5 -3 -10 5 -5
8 -10 20 -10 25 0 6 5 3 10 -5 5 -8 10 -19 10 -25z"/>
<path d="M3079 5707 c6 -8 23 -17 37 -20 30 -5 21 4 -20 22 -25 10 -28 10 -17
-2z"/>
<path d="M945 5625 c31 -10 36 -13 20 -17 -18 -5 -18 -6 3 -7 16 -1 22 -7 22
-23 0 -18 2 -20 10 -8 8 12 11 12 28 -3 10 -9 21 -17 25 -17 4 0 31 -11 61
-25 30 -14 66 -25 80 -25 14 0 28 -4 31 -10 3 -5 15 -10 25 -10 11 0 43 -11
72 -24 29 -13 78 -32 108 -41 62 -20 85 -29 186 -74 39 -17 73 -31 77 -31 9 0
120 -51 230 -106 50 -25 142 -67 204 -94 61 -27 120 -54 130 -59 57 -31 163
-72 171 -67 6 3 12 1 14 -4 2 -6 13 -12 25 -13 12 0 19 -5 16 -10 -9 -15 31
-36 86 -43 30 -4 48 -10 41 -14 -8 -5 7 -17 41 -33 30 -13 64 -34 75 -45 12
-12 24 -18 27 -15 3 3 43 -15 89 -40 46 -24 95 -47 110 -51 15 -3 44 -20 63
-37 31 -27 37 -30 52 -18 15 12 16 12 10 -5 -6 -14 -4 -17 9 -12 22 8 40 -4
23 -15 -10 -6 -5 -9 14 -9 16 0 44 -12 63 -26 19 -15 46 -28 61 -30 14 -1 30
-9 34 -16 5 -7 12 -13 17 -13 5 0 45 -24 89 -52 44 -29 85 -53 91 -53 6 0 15
-6 19 -14 4 -7 33 -29 63 -49 74 -47 205 -177 275 -272 l15 -20 -7 20 c-5 17
-3 16 14 -5 11 -13 18 -31 15 -40 -3 -8 -2 -12 3 -8 4 4 18 -6 30 -22 12 -16
25 -26 30 -22 4 4 5 -5 3 -21 -4 -20 -2 -25 6 -18 8 7 12 4 13 -10 1 -12 13
-35 26 -52 13 -18 27 -45 32 -62 11 -42 13 -95 3 -89 -5 3 -8 2 -7 -3 1 -4 -4
-23 -11 -41 -8 -23 -17 -31 -27 -28 -9 4 -31 -7 -52 -26 -20 -18 -28 -29 -18
-25 10 4 23 7 28 7 6 0 7 5 3 12 -5 7 -2 9 9 5 11 -4 14 -2 10 9 -3 7 0 14 6
14 6 0 11 -5 11 -11 0 -5 33 13 74 41 l74 51 -55 92 c-31 51 -105 180 -165
287 -59 107 -112 202 -116 210 -9 15 -110 75 -279 166 -240 128 -1213 613
-1393 694 -113 50 -288 131 -390 180 -102 48 -226 104 -277 124 -180 70 -437
138 -512 135 -22 -1 -20 -3 14 -14z m2290 -1045 c3 -6 -1 -7 -9 -4 -18 7 -21
14 -7 14 6 0 13 -4 16 -10z"/>
<path d="M3929 4225 c23 -32 51 -63 63 -70 16 -8 22 -19 20 -36 -1 -13 1 -19
5 -14 5 6 22 10 40 10 29 0 35 -6 69 -65 21 -36 55 -95 77 -132 l39 -68 53 37
53 37 -36 41 c-80 88 -214 190 -385 294 l-38 23 40 -57z m139 -96 c-3 -8 -7
-3 -11 10 -4 17 -3 21 5 13 5 -5 8 -16 6 -23z"/>
<path d="M3980 4141 c0 -6 4 -13 10 -16 6 -3 7 1 4 9 -7 18 -14 21 -14 7z"/>
<path d="M6350 3642 c-48 -14 -195 -85 -330 -157 -396 -213 -530 -237 -1371
-249 -300 -4 -276 2 -414 -97 -50 -35 -101 -82 -127 -116 -28 -38 -52 -58 -66
-59 -12 -1 -19 2 -16 7 2 5 -21 35 -53 68 l-58 60 -97 -61 c-53 -34 -95 -65
-92 -70 3 -4 -1 -5 -9 -2 -8 3 -21 -1 -28 -9 -12 -13 -21 -7 -64 41 -49 54
-52 55 -110 58 -44 3 -53 1 -35 -5 14 -5 19 -9 13 -10 -21 -2 -14 -21 7 -21
19 0 24 -9 21 -40 -2 -13 -1 -13 8 0 9 13 15 8 13 -10 0 -3 8 -6 19 -6 10 0
19 5 19 11 0 7 7 12 15 12 11 0 12 -4 4 -13 -15 -18 -1 -37 23 -31 13 4 18 1
15 -7 -4 -9 3 -12 21 -9 18 3 23 1 14 -4 -14 -11 224 -9 308 1 62 8 185 34
215 46 85 32 137 42 187 36 29 -4 64 -8 78 -9 14 -1 31 -10 38 -20 7 -9 17
-15 22 -12 5 3 17 -6 27 -21 10 -14 25 -34 33 -43 32 -36 71 -100 73 -118 0
-11 6 -20 13 -20 13 0 -7 40 -120 240 -37 66 -78 140 -91 167 l-24 48 37 0
c33 1 40 -4 67 -44 17 -24 34 -44 38 -44 5 0 6 -4 2 -9 -3 -5 -1 -13 5 -16 6
-4 10 -3 9 2 -1 4 2 18 6 30 9 27 39 26 59 -3 15 -22 353 -603 621 -1069 98
-170 181 -314 185 -318 4 -4 52 70 107 165 215 372 551 952 651 1123 57 99
135 232 172 295 103 178 154 259 158 255 2 -2 0 -11 -6 -21 -11 -19 -5 -54 10
-54 5 0 4 8 -2 19 -6 12 -6 22 -1 25 9 6 26 -22 23 -36 -4 -18 8 -5 38 42 18
28 37 51 44 51 25 3 -52 17 -98 18 -72 2 -125 -17 -148 -53 -10 -17 -128 -222
-261 -456 -428 -750 -682 -1189 -687 -1190 -3 0 -14 17 -26 38 -11 20 -98 174
-194 342 -282 496 -461 813 -485 862 l-17 33 26 -30 c14 -16 25 -24 26 -17 0
19 20 14 20 -5 1 -16 2 -16 11 1 7 10 14 14 18 9 3 -6 17 -14 31 -18 23 -7 24
-7 10 10 -14 17 -14 17 16 2 25 -13 59 -15 190 -12 87 2 173 5 189 8 17 3 81
10 144 16 63 7 119 15 125 18 6 4 23 6 38 4 16 -1 43 5 60 14 18 9 53 19 76
22 24 3 46 12 49 19 3 8 18 14 34 14 18 0 37 10 54 27 14 15 25 22 25 15 0 -7
5 -10 10 -7 12 8 13 -15 1 -35 -6 -8 -7 -18 -4 -23 3 -5 20 23 38 62 18 39 36
75 40 79 5 4 5 2 2 -5 -4 -6 -2 -22 3 -35 l11 -23 -5 23 c-3 18 -1 22 14 17
10 -3 21 -1 25 4 3 6 0 8 -8 5 -22 -8 -30 12 -9 22 19 8 52 13 52 8 0 -2 -18
-48 -41 -102 -47 -114 -39 -111 30 13 27 50 55 89 61 87 6 -1 9 2 5 7 -6 10
21 71 31 71 3 0 3 -10 -1 -22 -6 -21 -5 -22 8 -5 16 19 32 24 21 5 -4 -7 -3
-8 5 -4 6 4 9 11 6 16 -3 5 9 23 26 42 l32 33 -16 -30 c-46 -85 -178 -359
-169 -350 5 6 62 91 127 190 65 99 125 188 133 198 15 17 17 17 34 -5 11 -13
16 -16 12 -6 -4 11 1 18 15 23 12 3 26 16 32 27 9 17 7 24 -13 43 -13 12 -30
20 -38 17z m-1726 -457 c3 -8 1 -15 -4 -15 -6 0 -10 7 -10 15 0 8 2 15 4 15 2
0 6 -7 10 -15z m-37 -47 c-3 -8 -6 -5 -6 6 -1 11 2 17 5 13 3 -3 4 -12 1 -19z"/>
<path d="M6678 3603 c7 -3 16 -2 19 1 4 3 -2 6 -13 5 -11 0 -14 -3 -6 -6z"/>
<path d="M6712 3595 c11 -12 -44 -111 -377 -686 -82 -140 -173 -297 -203 -349
-30 -52 -104 -180 -165 -285 -387 -668 -429 -743 -424 -757 4 -9 6 -7 6 4 1 9
6 20 11 23 7 4 9 -2 7 -17 -2 -12 -2 -17 0 -10 3 6 10 12 16 12 12 0 74 40
122 79 17 13 32 35 35 49 3 14 9 25 14 23 12 -4 116 169 116 194 0 8 6 18 13
22 11 7 23 26 32 53 11 31 27 58 44 72 12 10 21 24 21 32 0 9 11 32 25 52 14
20 25 43 25 50 0 8 4 14 9 14 5 0 25 31 45 70 20 38 41 72 46 75 6 3 10 17 10
31 0 13 5 24 11 24 23 0 85 100 72 114 -4 3 -1 6 5 6 7 0 18 16 26 35 8 19 19
35 23 35 5 0 16 15 24 33 9 17 28 58 43 90 16 32 41 72 57 90 16 17 29 39 29
48 0 9 7 19 15 23 8 3 15 17 15 31 0 14 3 25 8 25 4 0 20 26 37 58 16 31 35
60 41 64 6 4 24 31 39 60 15 29 33 60 40 68 7 8 15 27 19 43 7 29 79 108 109
120 9 3 17 11 17 16 0 21 67 44 138 47 67 3 74 2 82 -19 8 -21 9 -21 10 -2 l1
20 9 -20 c6 -13 9 -15 9 -5 0 13 -46 90 -95 159 -20 28 -126 79 -180 88 -22 3
-36 2 -32 -2z m-1119 -2048 c-3 -5 -10 -4 -15 1 -6 6 -7 16 -3 22 6 9 9 9 16
-1 4 -7 5 -17 2 -22z"/>
<path d="M6310 3528 c-12 -22 -12 -22 6 -6 10 10 15 20 12 24 -4 3 -12 -5 -18
-18z"/>
<path d="M3592 3385 c0 -16 2 -22 5 -12 2 9 2 23 0 30 -3 6 -5 -1 -5 -18z"/>
<path d="M4616 2817 c3 -10 9 -15 12 -12 3 3 0 11 -7 18 -10 9 -11 8 -5 -6z"/>
<path d="M4695 2720 c9 -16 18 -30 21 -30 2 0 -2 14 -11 30 -9 17 -18 30 -21
30 -2 0 2 -13 11 -30z"/>
<path d="M4770 2591 c0 -6 4 -13 10 -16 6 -3 7 1 4 9 -7 18 -14 21 -14 7z"/>
<path d="M4816 2517 c3 -10 9 -15 12 -12 3 3 0 11 -7 18 -10 9 -11 8 -5 -6z"/>
<path d="M4860 2434 c0 -5 7 -18 15 -28 8 -11 15 -16 15 -10 0 5 -7 18 -15 28
-8 11 -15 16 -15 10z"/>
<path d="M4934 2288 c-4 -7 -3 -8 4 -4 7 4 12 3 12 -1 0 -5 7 -18 15 -29 14
-17 14 -15 0 14 -17 35 -20 37 -31 20z"/>
<path d="M5190 1860 c6 -11 13 -20 16 -20 2 0 0 9 -6 20 -6 11 -13 20 -16 20
-2 0 0 -9 6 -20z"/>
</g>
</svg>
